# xmcd
#
# Track frame offsets:
#	183
#	14538
#	25723
#
# Disc length: 660 seconds
#
# Revision: 0
# Processed by: cddbd v1.5.1PL2 Copyright (c) Steve Scherf et al.
# Submitted via: audiograbber 1.83.01
#
DISCID=18029203
DTITLE=Peter Kraus - Rock Peter Rock
DYEAR=1992
DGENRE=
TTITLE0=Rock, Peter, Rock (Single Version)
TTITLE1=Hallo Peter (Tribute To Peter)
TTITLE2=Rock, Peter, Rock (Maxi Version)
EXTD=
EXTT0=
EXTT1=
EXTT2=
PLAYORDER=
